<?xml version="1.0" standalone="no"?>
<!DOCTYPE svg PUBLIC "-//W3C//DTD SVG 20010904//EN"
 "http://www.w3.org/TR/2001/REC-SVG-20010904/DTD/svg10.dtd">
<svg version="1.0" xmlns="http://www.w3.org/2000/svg"
 width="512.000000pt" height="512.000000pt" viewBox="0 0 512.000000 512.000000"
 preserveAspectRatio="xMidYMid meet">
<metadata>
Created by potrace 1.14, written by Peter Selinger 2001-2017
</metadata>
<g transform="translate(0.000000,512.000000) scale(0.100000,-0.100000)"
fill="#000000" stroke="none">
<path d="M2139 4548 c-5 -25 -8 -58 -14 -175 -3 -76 -8 -165 -10 -198 -2 -33
-6 -116 -10 -185 -3 -69 -8 -161 -10 -205 -6 -89 -13 -227 -20 -385 -3 -58 -7
-141 -10 -185 -6 -82 -11 -188 -20 -375 -3 -58 -7 -141 -10 -185 -2 -44 -7
-132 -10 -195 -3 -63 -8 -144 -10 -180 -2 -36 -7 -123 -10 -195 -4 -71 -8
-147 -9 -168 -2 -21 1 -40 5 -43 5 -2 43 -7 86 -9 43 -2 122 -7 176 -10 53 -3
97 -2 98 2 0 4 2 15 4 24 1 9 6 79 10 157 3 77 8 169 10 204 3 55 13 259 20
388 1 25 5 108 9 185 4 77 9 169 11 205 2 36 7 121 10 190 3 69 7 157 10 195
2 39 7 124 10 190 3 66 8 152 10 190 2 39 7 122 10 185 3 63 8 149 10 190 23
383 23 376 -7 377 -13 0 -94 4 -180 8 -87 4 -158 5 -159 3z"/>
<path d="M2789 4543 c-8 -1 -39 -4 -69 -5 l-55 -3 1 -40 c0 -37 10 -245 19
-395 2 -36 6 -119 9 -185 4 -66 8 -154 11 -195 2 -41 7 -131 10 -200 4 -69 8
-156 10 -195 12 -226 15 -291 20 -390 3 -60 8 -146 11 -190 2 -44 7 -123 9
-175 2 -52 7 -138 10 -190 9 -153 15 -267 21 -390 3 -63 6 -120 7 -127 0 -11
122 -10 267 2 19 2 50 3 68 4 l33 1 -6 123 c-3 67 -7 158 -10 202 -4 81 -12
235 -20 400 -3 50 -7 128 -10 175 -15 285 -23 451 -30 595 -7 142 -14 270 -20
370 -3 44 -7 130 -10 190 -3 61 -8 142 -10 180 -3 39 -8 126 -11 195 -5 109
-7 144 -13 233 -1 17 -11 18 -114 15 -62 -2 -120 -4 -128 -5z"/>
<path d="M878 3414 c-2 -1 -19 -5 -38 -8 -67 -10 -194 -61 -245 -98 -38 -28
-114 -96 -135 -121 -14 -16 -34 -41 -46 -54 -66 -77 -147 -290 -155 -408 -1
-22 -7 -48 -12 -59 -6 -12 -6 -16 1 -12 6 3 12 1 14 -5 2 -7 64 -11 188 -10
302 0 267 -6 275 44 9 55 26 85 67 123 71 68 156 86 246 52 80 -30 152 -125
152 -202 0 -18 -18 -17 262 -17 186 -1 224 3 214 19 -2 4 -7 39 -10 79 -21
226 -153 449 -338 570 -64 42 -164 85 -225 98 -28 7 -210 14 -215 9z"/>
<path d="M4040 3405 c-214 -48 -383 -183 -485 -390 -51 -101 -82 -213 -88
-310 -3 -64 -3 -65 22 -66 27 0 431 0 444 1 4 0 7 11 7 24 0 67 48 142 117
183 58 34 156 38 215 9 73 -36 138 -129 138 -198 0 -10 7 -18 18 -19 26 0 361
0 409 0 l42 1 -4 48 c-7 87 -30 180 -62 261 -88 221 -255 379 -467 442 -84 25
-226 31 -306 14z"/>
<path d="M778 2364 c-15 -15 11 -261 42 -394 30 -127 38 -154 79 -256 59 -151
180 -358 276 -474 104 -127 240 -252 370 -343 96 -66 282 -164 380 -200 107
-39 109 -40 120 -42 6 -2 46 -12 90 -23 44 -11 96 -23 115 -26 19 -3 46 -9 60
-12 57 -14 406 -13 501 1 460 67 880 307 1154 659 17 21 35 44 40 50 23 26
105 157 142 226 60 115 129 289 148 374 2 12 9 39 15 61 6 22 13 56 16 75 2
19 7 46 9 60 8 42 19 162 19 215 l1 50 -180 0 -179 0 -1 -60 c-2 -62 -13 -169
-20 -195 -2 -8 -7 -29 -9 -46 -10 -58 -64 -220 -97 -289 -166 -354 -456 -622
-816 -753 -297 -109 -650 -112 -948 -11 -103 35 -276 125 -367 189 -146 104
-296 262 -386 405 -64 104 -147 288 -167 375 -34 148 -33 140 -41 209 -4 31
-8 76 -9 101 -2 25 -3 53 -4 63 -1 15 -16 17 -174 17 -96 0 -176 -3 -179 -6z"/>
</g>
</svg>
